<?xml version="1.0" encoding="UTF-8"?>
<svg id="_레이어_2" data-name="레이어 2" xmlns="http://www.w3.org/2000/svg" width="207.19" height="112.21" viewBox="0 0 207.19 112.21">
  <g id="_레이어_1-2" data-name="레이어 1">
    <g>
      <path d="M32.51,47.54c1.97,1.62,1.74,3.24.81,4.74,8.1.69,17.12,5.9,17.12,16.08,0,11.22-10.64,18.51-21.17,18.51-12.72,0-21.05-7.29-21.05-17.58s9.02-15.85,15.62-16.66c1.16-1.04,1.74-2.31,1.39-3.82-.12-.81-.46-1.5-.93-2.08-3.01.23-5.67.58-7.29.81-2.78.35-4.63,1.39-5.78,1.74-.81.35-1.85.23-3.24-.58-2.78-1.85-5.78-4.86-7.17-6.94-.92-1.5-1.04-2.66-.46-3.24.46-.35,1.16-.35,2.2,0,1.62.58,3.82.81,6.71.81,7.75,0,15.62-.35,23.37-1.39,3.01-.35,4.28-.81,5.9-1.97.69-.58,1.85-.93,3.59-.93,1.97,0,5.67.46,7.52.93,2.31.58,3.7,2.54,3.47,4.97-.23,2.43-2.43,4.97-6.02,4.74-4.4-.12-8.21,0-11.91.23l-4.74.35c.81.46,1.62.93,2.08,1.27ZM23.6,31.58c-2.54.35-3.35-.12-4.97-1.27-2.08-1.39-5.67-6.94-6.36-8.21-1.04-1.97-1.27-3.35-.69-3.82.46-.35,1.16-.46,2.43.12,1.16.58,5.09,1.16,8.21,1.39,4.28.35,8.44.23,13.19,0,4.97-.12,7.29,2.31,7.4,5.32.12,2.43-1.5,4.97-4.17,5.78-3.93,1.16-13.53.69-15.04.69ZM29.27,60.85c-4.4,0-8.1,3.12-7.98,7.87.12,4.63,3.47,7.4,7.87,7.4,4.74,0,8.1-3.47,8.1-7.75,0-4.63-3.82-7.52-7.98-7.52ZM70.92,5.32c-1.39-1.04-2.89-2.08-2.66-3.24.35-1.5,3.35-2.08,4.63-2.08,4.63,0,15.27,2.89,19.09,4.16,4.28,1.39,4.51,3.01,4.05,5.55-.23,1.39-.69,3.12-.69,5.44l-.35,69.75c0,9.72-2.78,26.72-9.95,26.72-4.51,0-5.78-5.67-5.78-18.16l-.12-29.38-7.87.46-.12,15.04c0,9.37-2.43,22.67-8.91,22.67-3.59,0-5.67-4.51-5.67-14.46l-.23-65.94c0-3.47-4.51-6.71-7.17-8.1-1.04-.58-2.2-1.39-1.97-2.43.35-1.74,4.4-2.08,5.78-2.08,3.7,0,11.57,2.2,15.04,3.36,4.28,1.39,4.17,3.24,3.82,5.9-.12,1.04-.35,2.08-.35,3.12l-.12,32.5,7.75-.46V16.31c0-4.97-4.28-8.56-8.21-10.99Z"/>
      <path d="M120.07,23.25c.46-.58,1.5-.58,2.78-.35,2.89.46,5.78.81,9.02.81,7.17,0,14.81-.23,21.86-1.27,1.5-.23,1.85-.81,2.08-.93.58-.58,1.62-.58,3.01-.69,2.89-.23,10.29.12,14,.58,2.08.23,2.78,1.27,2.66,2.43-.12,1.74-1.16,4.17-2.43,6.48-.93,3.24-3.35,11.22-4.63,14.92,2.66.58,4.16,2.66,4.16,4.51,0,1.97-1.5,4.4-6.13,4.74l-22.79,1.5v11.68c0,2.2.23,3.12,2.54,3.12,12.15,0,31-4.51,42.34-8.79l-.23-46.04c0-1.97,0-3.59-1.16-5.09-1.39-1.85-3.35-3.82-6.02-5.44-1.04-.81-2.66-1.85-2.54-3.01,0-.93,2.08-1.85,3.24-2.08.81-.23,1.97-.23,2.43-.23,3.7.35,18.51,3.35,21.52,5.67,1.74,1.27,1.5,3.12,1.16,4.74-.23,1.27-.58,2.66-.69,4.28l-.35,73.69c0,9.6-2.78,23.71-10.76,23.71-4.51,0-6.25-7.52-6.36-19.43l-.12-25.57c-8.21,4.63-18.62,9.83-25.45,12.61-8.56,3.47-23.48,6.94-28.92,6.94-5.09,0-7.87-8.21-7.87-12.26v-17.24c0-4.05-2.89-5.9-6.25-7.4-1.04-.46-1.85-1.16-1.85-1.73,0-.81,1.04-1.62,3.59-2.31.93-.23,3.93-.35,7.4-.35s7.29.12,9.72.46c2.08.23,2.78.81,3.35,1.39,2.31,0,8.56-.58,12.26-1.16l.46-14.58c-3.36.12-9.25.58-13.54.92-1.85.12-3.47.46-4.63.93-1.73.69-3.59,1.04-4.63,1.04-3.7,0-9.95-5.67-11.8-8.33-.69-1.04-.93-2.43-.46-2.89Z"/>
    </g>
  </g>
</svg>