<?xml version="1.0" encoding="UTF-8"?>
<svg id="_레이어_2" data-name="레이어 2" xmlns="http://www.w3.org/2000/svg" width="279.88" height="142.84" viewBox="0 0 279.88 142.84">
  <defs>
    <style>
      .cls-1 {
        fill: #daff55;
      }
    </style>
  </defs>
  <g id="_레이어_1-2" data-name="레이어 1">
    <g>
      <rect class="cls-1" width="279.88" height="142.84"/>
      <g>
        <path d="M80.87,48.94c0,13.85-10.04,27.31-30.36,27.06-18.55-.25-29.85-12.07-29.73-27.06.13-13.97,10.16-26.17,29.85-26.29,20.96-.13,30.23,13.21,30.23,26.29ZM31.08,84.64c.13,0,21.98.13,41.28.13s47.38-.13,47.64-.13l.13,42.68-17.4.25.13-28.96c-.25,0-17.91-.13-30.36-.13-20.71,0-41.28.25-41.41.25v-14.1ZM36.79,48.94c-.13,7.11,5.46,13.08,13.72,13.08,9.65,0,14.23-5.72,14.23-13.08,0-6.86-4.83-12.07-14.1-12.19-8.89-.13-13.72,4.95-13.85,12.19ZM102.85,78.8l.38-23.25-18.8.13v-15.12l18.8.25-.25-26.04s13.46.64,15.37.64c3.81,0,1.52,4.45,1.52,5.59v29.85c0,10.8.25,27.69.25,27.69l-17.28.25Z"/>
        <path d="M211.45,50.21c-.89,15.37-13.85,25.15-32.01,24.9-19.18-.25-30.61-11.94-30.11-27.69.51-17.4,15.12-26.17,31.5-25.91,19.31.38,31.63,11.3,30.61,28.71ZM177.79,81.34c4.32-.13,1.4,3.43,1.4,4.07l-.13,4.57s13.34.13,24.64.13c9.27,0,23.63-.13,23.75-.13l-.13-9.4c.13-.13,13.85.63,15.62.63,3.94,0,1.27,3.68,1.27,4.95v41.29l-17.02.25.13-2.54h-23.75c-9.53,0-24.39.13-24.39.13l.13,2.54-17.15.25.13-47.51s13.34.89,15.5.76ZM165.09,48.44c0,8.77,6.99,13.85,14.48,13.72,9.91-.13,15.24-5.08,15.5-12.96.25-8-5.59-13.97-14.99-13.85-9.53.13-14.99,5.97-14.99,13.08ZM179.06,112.59s11.94.13,23.88.13,24.52-.13,24.64-.13v-9.53c-.13,0-14.99-.25-24.64-.25s-24.13,0-23.88,0v9.78ZM227.46,45.13c0-16.64-.13-30.23-.13-30.36.13-.13,13.72.38,16.13.38,2.92,0,.89,4.57.89,6.22l-.25,22.36,14.99-.13v15.75l-14.99-.13.25,17.66-17.15.13s.25-14.35.25-31.88Z"/>
      </g>
    </g>
  </g>
</svg>