<?xml version="1.0" encoding="UTF-8"?>
<svg id="_레이어_2" data-name="레이어 2" xmlns="http://www.w3.org/2000/svg" width="419.92" height="213.67" viewBox="0 0 419.92 213.67">
  <defs>
    <style>
      .cls-1 {
        fill: #73d0f4;
      }
    </style>
  </defs>
  <g id="_레이어_1-2" data-name="레이어 1">
    <g>
      <rect class="cls-1" width="419.92" height="213.67"/>
      <g>
        <path d="M100.29,164.85c-34.18,2.04-53.72,2.85-60.43,3.05-2.85.2-11.39,6.1-12.21-.2-1.02-8.34-1.63-18.31-1.83-22.38,6.1,0,14.45.2,26.45,0,4.07,0,15.06-.41,27.47-1.02l-.2-10.58c-5.9-.61-32.76-4.07-32.76-26.86s30.52-26.66,44.97-26.66c15.46,0,42.73,4.27,42.73,26.86s-24.82,25.23-31.13,26.86v9.36c12.41-.41,21.98-.81,21.98-.81,12-.41,23.6-1.42,29.1-1.83v20.55c-7.53,1.02-26.66,2.03-54.12,3.66ZM36.8,73.9v-20.96h108.05v20.96H36.8ZM65.49,44.8v-18.52h53.11v18.52h-53.11ZM91.74,97.3c-4.27,0-19.53.81-19.74,9.56-.2,8.55,12.82,10.17,19.53,10.17,5.09,0,19.33-1.63,18.92-10.17-.41-8.75-13.84-9.56-18.72-9.56ZM161.12,201.07V13.67c4.07,0,18.92.61,25.03.81,7.53.41,2.24,5.29,2.24,11.6v174.99h-27.27Z"/>
        <path d="M240.27,166.07c-3.66.81-8.75,5.29-10.17-1.63-.61-2.85-2.04-17.09-2.44-21.57,7.32,0,12.41-.2,28.49-1.02-.61-14.04-3.46-50.87-5.09-74.68,4.88-.41,18.31-.61,21.98-.81,7.12-.2,3.66,5.49,3.87,9.77,1.22,22.79,1.83,40.29,3.66,65.11,5.7,0,5.9-.41,19.53-1.02,1.22-21.16,3.25-45.78,2.64-75.29,7.12.41,17.7.41,22.59.81,7.12.61,2.85,7.12,2.65,10.38-1.02,19.53-2.04,37.85-3.05,62.88,6.92-.2,14.65-1.02,26.04-1.83v22.99c-51.48,3.26-90.55,4.88-110.69,5.9ZM235.8,58.43v-24.21h110.49v24.21h-110.49ZM364.6,201.07V13.87c6.51,0,16.69.41,24.82.81,7.53.41,2.44,7.12,2.44,13.84v172.55h-27.27Z"/>
      </g>
    </g>
  </g>
</svg>