<?xml version="1.0" encoding="UTF-8"?>
<svg id="_레이어_2" data-name="레이어 2" xmlns="http://www.w3.org/2000/svg" width="481.94" height="158.61" viewBox="0 0 481.94 158.61">
  <g id="_레이어_1-2" data-name="레이어 1">
    <g>
      <path d="M52.87,45.29c.65.65,1.14,1.31,1.47,1.96.33.82.33,1.63,0,2.62,7.69.49,26.33,4.58,26.49,21.91.16,15.7-15.7,25.67-33.03,25.67-19.46,0-32.54-9.97-32.54-25.34,0-16.35,18.31-20.77,23.55-21.58,2.62-.33,3.43-1.47,3.6-2.94,0-.49,0-1.14-.33-1.64-5.89.33-11.12.82-14.72,1.31-4.09.65-6.21,1.63-8.18,2.45-.65.33-1.47.49-2.29.49-4.42,0-12.92-7.52-15.37-10.63-1.31-1.63-2.13-4.58-.98-5.56.65-.49,1.64-.65,3.92.16,2.78.98,8.34,1.14,14.23,1.14,12.43,0,35.32-.82,46.11-2.94,3.11-.65,4.74-1.47,6.7-2.62,1.64-1.14,6.7-1.31,8.99-1.31,3.6,0,7.36.49,9.32,1.47,2.94,1.31,4.25,4.74,3.92,7.69-.33,3.6-3.43,7.19-8.18,7.19l-10.46-.33c-7.36,0-14.88.33-22.24.82ZM40.28,28.29c-7.69,0-12.43-6.05-16.02-12.26-2.13-3.43-2.13-6.38-.82-7.19.82-.49,1.96-.33,3.92.65,2.45.98,7.03,1.63,10.96,1.96,7.03.49,17.17.16,22.73.33,5.72.16,9.32,3.92,9.32,7.85s-3.43,7.52-7.68,8.01c-6.7.82-18.8.65-22.4.65ZM101.11,148.31l-33.03,1.64c-2.62,4.25-7.03,8.01-12.26,8.01-4.09,0-8.18-5.89-8.5-14.06l-.82-26.49c-.33-4.91-3.76-7.52-8.18-8.83-2.12-.65-3.92-1.47-3.76-2.94.33-2.94,7.2-4.58,9.97-4.58,6.21,0,17.17,1.31,21.75,1.96,3.76.65,4.91,1.8,4.91,3.92,0,1.15-.33,2.45-.49,4.42v3.11l29.11-.82v-4.74c0-4.74-2.94-6.7-7.03-8.5-1.14-.49-2.29-1.14-2.29-2.29s1.31-2.13,2.94-2.78c.98-.33,1.96-.65,4.25-.65,6.05.16,17.82,1.8,23.55,3.27,3.11.82,4.09,2.94,3.92,5.72-.16,2.12-.82,3.76-.98,6.21v23.87c0,5.89-.82,10.79-3.6,15.21-2.45,3.92-5.89,7.85-11.61,7.85-4.25,0-6.54-4.09-7.85-8.5ZM47.96,60.34c-6.38,0-11.28,3.92-11.12,10.79,0,6.7,4.74,11.28,10.96,11.28,7.52,0,11.12-5.07,10.96-12.26-.16-7.03-5.23-9.81-10.79-9.81ZM70.69,137.02l29.11-1.31v-9.97l-29.11,1.14v10.14ZM140.02,52.82c6.21,0,12.75.65,12.75,8.67,0,5.4-2.78,9.97-7.52,10.3-6.87.65-13.9.65-20.77.65-1.14,7.52-5.56,19.13-15.37,19.13-5.56,0-8.18-8.01-8.34-22.89l-.49-46.93c0-2.78-.16-5.4-2.45-7.85-2.13-2.29-5.89-5.23-8.83-6.87-1.63-.82-3.27-2.45-3.11-3.76.33-2.13,6.05-3.27,7.85-3.27,5.4.33,26.65,4.58,30.9,8.01,1.8,1.47,2.29,2.62,1.8,5.07l-1.14,6.87-.33,38.26h.49c1.63-.16,2.94-.82,5.56-2.94,2.94-2.13,5.56-2.45,8.99-2.45Z"/>
      <path d="M174.53,32.87c.65-.82,2.13-.82,3.92-.49,4.09.65,8.18,1.14,12.75,1.14,10.14,0,20.93-.33,30.9-1.8,2.12-.33,2.62-1.14,2.94-1.31.82-.82,2.29-.82,4.25-.98,4.09-.33,14.55.16,19.79.82,2.94.33,3.92,1.8,3.76,3.43-.16,2.45-1.63,5.89-3.43,9.16-1.31,4.58-4.74,15.86-6.54,21.09,3.76.82,5.89,3.76,5.89,6.38,0,2.78-2.13,6.21-8.67,6.7l-32.21,2.13v16.51c0,3.11.33,4.42,3.6,4.42,17.17,0,43.82-6.38,59.85-12.43l-.33-65.08c0-2.78,0-5.07-1.64-7.2-1.96-2.62-4.74-5.4-8.5-7.68-1.47-1.14-3.76-2.62-3.6-4.25,0-1.31,2.94-2.62,4.58-2.94,1.14-.33,2.78-.33,3.43-.33,5.23.49,26.16,4.74,30.41,8.01,2.45,1.8,2.12,4.42,1.63,6.7-.33,1.8-.82,3.76-.98,6.05l-.49,104.16c0,13.57-3.92,33.52-15.21,33.52-6.38,0-8.83-10.63-8.99-27.47l-.16-36.14c-11.61,6.54-26.33,13.9-35.97,17.82-12.1,4.91-33.19,9.81-40.88,9.81-7.19,0-11.12-11.61-11.12-17.33v-24.36c0-5.72-4.09-8.34-8.83-10.46-1.47-.65-2.62-1.64-2.62-2.45,0-1.14,1.47-2.29,5.07-3.27,1.31-.33,5.56-.49,10.46-.49s10.3.16,13.74.65c2.94.33,3.92,1.14,4.74,1.96,3.27,0,12.1-.82,17.33-1.63l.65-20.6c-4.74.16-13.08.82-19.13,1.31-2.62.16-4.91.65-6.54,1.31-2.45.98-5.07,1.47-6.54,1.47-5.23,0-14.06-8.01-16.68-11.77-.98-1.47-1.31-3.43-.65-4.09Z"/>
      <path d="M341.64,113.15c9.65,0,19.13-.98,28.62-1.96l-.49-9.32c-11.77-2.29-22.73-9.65-22.56-22.4.16-16.02,17.99-19.62,24.85-20.77,2.13-.82,2.29-2.62,1.47-4.74l-13.73,1.31c-3.92.33-6.7,1.8-8.67,2.45-.98.33-1.8.49-2.78.49-4.74,0-12.26-7.52-14.88-10.96-1.31-1.8-1.8-4.58-1.14-5.56.65-.82,2.13-.65,3.6-.16,2.62.82,6.38,1.14,13.9,1.14,12.1,0,27.63-1.14,38.59-1.96,5.23-.33,9.97-1.63,12.59-3.43,1.96-1.14,6.21-1.31,8.67-1.31,2.94,0,5.56.33,7.36.65,3.27.82,5.72,4.42,5.4,8.34-.16,3.6-3.11,8.34-10.46,8.01-3.6-.33-7.36-.16-11.12-.16l-16.68.33c1.96,1.64,2.78,3.43,2.29,5.4,6.38.16,25.34,4.58,25.34,20.28,0,12.75-9.81,19.29-20.77,22.07l-.65,7.85c12.92-1.8,25.84-4.09,38.26-7.85l-.16-76.2c0-4.09-.49-6.7-2.12-8.99-2.45-3.27-5.23-5.89-8.18-7.68-2.45-1.64-4.09-3.27-3.6-4.74.33-.98,1.64-1.8,3.43-2.62.65-.33,2.62-.49,3.92-.33,4.91.49,27.14,4.42,30.74,8.34,1.96,1.96,2.13,3.92,1.47,6.38-.49,1.96-.98,4.09-.98,6.38l-.65,57.39c2.94,0,4.74-.98,7.19-2.94,2.94-2.12,5.56-2.45,8.99-2.45,6.21,0,13.24.82,13.24,8.99,0,5.56-3.11,10.63-7.85,10.96-5.72.49-15.53.65-21.75.65l-.33,24.69c-.16,16.68-2.78,39.9-15.53,39.73-7.85-.16-7.69-24.2-7.69-31.88v-18.64c-6.05,2.45-16.35,6.7-32.05,11.61-17.33,5.56-31.72,8.34-40.71,10.3-3.43.82-5.23,2.29-6.87,3.11-.98.49-1.8.82-2.78.82-6.21,0-18.8-11.94-22.4-16.19-1.64-1.96-1.31-5.07-.65-5.72,1.14-.98,3.27-.33,4.58,0,3.11.98,8.01,1.31,13.74,1.31ZM393.8,34.34l-23.22.65c-3.6.16-5.89-.16-8.99-2.94-2.12-1.96-7.36-7.68-8.67-10.46-1.31-2.78-1.31-5.56-.49-6.21.65-.65,1.8-.49,3.11.16,1.8.82,5.4,1.63,10.14,2.13,5.89.65,17.99.98,25.18,1.14,6.7,0,10.79,2.94,10.96,8.17.16,3.76-2.45,7.2-8.01,7.36ZM378.92,69.33c-6.7,0-10.63,4.74-10.63,10.14,0,5.72,5.23,10.3,10.3,10.3,7.36-.16,11.45-4.58,11.45-10.79s-5.56-9.65-11.12-9.65Z"/>
    </g>
  </g>
</svg>