<?xml version="1.0" encoding="UTF-8"?>
<svg id="_레이어_2" data-name="레이어 2" xmlns="http://www.w3.org/2000/svg" width="236.34" height="113.07" viewBox="0 0 236.34 113.07">
  <g id="_레이어_1-2" data-name="레이어 1">
    <g>
      <path d="M0,65.55v-14.68h41.42v-17.66c3.73,0,13.31,0,16.54.12,4.23.25,1.37,2.36,1.37,5.22v12.31h50.13v14.68H0ZM55.23,111.83c-6.72,0-43.79.5-43.79-21.02,0-19.65,36.7-19.65,43.79-19.65,7.84,0,42.17-.12,42.17,19.65,0,21.15-34.95,21.02-42.17,21.02ZM94.54,45.53l-18.16-1.87c1.99-6.72,2.99-16.67,2.99-23.01H12.19V5.85h85.83c0,12.69-.87,29.23-3.48,39.68ZM55.23,83.34c-4.35,0-26.87-1-26.87,7.34,0,8.83,22.89,8.33,26.87,8.33,4.35,0,25.87-.62,25.87-8.33,0-8.21-21.52-7.34-25.87-7.34Z"/>
      <path d="M187.21,63.69c-2.99-1.24-10.57-5.35-16.05-10.7-5.97-5.85-8.08-9.58-9.83-12.56-2.12,3.86-4.11,7.34-10.95,14.3-5.72,5.85-11.07,9.33-15.18,11.2-3.23-4.1-6.84-7.84-12.07-11.2,4.23-2.11,15.05-6.47,22.89-17.79,7.21-10.45,7.09-21.77,7.09-30.6,3.86.12,12.81.5,15.3.5,2.99,0,1.49,4.1.87,6.84,0,5.1,0,15.18,6.47,22.51,8.58,9.7,17.29,13.93,21.15,15.8-3.11,2.74-7.59,8.09-9.7,11.69ZM180.37,113.07c-17.41,0-42.42-3.11-42.42-21.02s24.13-21.89,42.42-21.89,42.29,3.23,42.29,21.89-23.76,21.02-42.29,21.02ZM180,82.72c-8.58,0-25.5,1.62-25.5,9.45s16.92,8.21,25.62,8.21,26-.75,26-8.21c0-7.84-17.17-9.45-26.12-9.45ZM221.79,46.27v21.89h-16.67V0c2.49,0,13.31.25,15.67.37,3.73.25,1,4.35,1,5.97v24.75h14.55v15.18h-14.55Z"/>
    </g>
  </g>
</svg>