<?xml version="1.0" encoding="UTF-8"?>
<svg id="_레이어_2" data-name="레이어 2" xmlns="http://www.w3.org/2000/svg" width="158.61" height="76.93" viewBox="0 0 158.61 76.93">
  <g id="_레이어_1-2" data-name="레이어 1">
    <g>
      <path d="M42.68,60.47c-1.34-.58-5.6-2.59-9.69-6.68-3.67-3.67-5.68-7.1-6.51-8.77-.92,1.75-3.84,6.43-9.02,10.94-4.76,4.18-7.85,5.6-9.52,6.51-1.84-2.25-5.43-5.68-7.94-8.02,2.51-1.42,11.11-4.34,16.96-13.2,4.26-6.43,4.26-9.77,4.26-11.94H4.43v-9.52h42.93v9.52h-16.29c0,2.59.5,8.6,5.85,14.37,4.84,5.18,8.19,6.43,12.11,8.44-1.59,1.67-4.76,5.68-6.35,8.35ZM14.78,14.62V5.76h22.39v8.85H14.78ZM56.13,76.93V.08c2.67,0,6.85.17,10.19.33,3.09.17,1,2.92,1,5.68v70.83h-11.19Z"/>
      <path d="M111.92,51.7c-10.86.33-20.38.67-23.14.75-1.17.08-4.68,2.5-5.01-.08-.42-3.42-.67-5.85-.75-7.52,2.51,0,5.93.08,10.86,0,1,0,4.59-.17,9.77-.42l-.08-2.92c-1.34-.17-12.45-1.09-12.45-9.44s11.44-9.44,16.96-9.44,17.29.92,17.29,9.44-9.36,9.1-12.11,9.27v2.67c9.35-.42,19.13-.75,21.55-.92v7.77c-3.26.08-14.12.58-22.89.84ZM85.69,19.96v-7.68h46.11v7.68h-46.11ZM94.3,74.51v-20.21c1.34,0,8.35.17,9.61.17,3.84,0,1.75,2.76,1.75,3.93v6.68h44.94v9.44h-56.3ZM97.97,10.02V2.92h21.55v7.1h-21.55ZM108.08,28.48c-2.92,0-7.02.75-7.02,3.59,0,2.59,4.51,3.42,7.02,3.42,2.92,0,7.27-.84,7.27-3.42,0-2.76-4.26-3.59-7.27-3.59ZM148.84,36.08v20.55h-11.19V0c1.67,0,8.94.17,10.52.25,2.51.17.67,2.92.67,4.01v21.63h9.77v10.19h-9.77Z"/>
    </g>
  </g>
</svg>