<?xml version="1.0" encoding="UTF-8"?>
<svg id="_레이어_2" data-name="레이어 2" xmlns="http://www.w3.org/2000/svg" width="343.54" height="113.52" viewBox="0 0 343.54 113.52">
  <defs>
    <style>
      .cls-1 {
        fill: #ff8b00;
      }
    </style>
  </defs>
  <g id="_레이어_1-2" data-name="레이어 1">
    <g>
      <rect class="cls-1" width="343.54" height="113.52"/>
      <g>
        <path d="M47.68,61.85l-13.38.73c-.89,1.69-2.82,4.03-5.64,4.03-3.31,0-4.19-5.64-4.35-9.43l-.48-15.07c-.08-2.02-.73-3.47-3.14-4.68-.72-.4-2.1-.97-2.01-1.69,0-.48.64-.97,2.42-1.53,2.26-.56,11.21.65,12.41.89,1.37.24,1.85.97,1.85,2.18,0,.73-.16,1.69-.16,2.9v1.61l11.69-.48v-3.47c0-2.02-2.01-3.87-3.71-4.68-.97-.4-1.29-.97-1.29-1.53,0-.89,2.34-1.53,3.22-1.53,2.34,0,8.54.81,11.61,1.77,1.61.56,2.18,1.29,1.93,2.82-.08.64-.24,1.93-.24,2.82v13.7c0,5.64-2.01,13.3-7.5,13.3-1.61,0-2.58-1.21-3.22-2.66ZM85.89,87.24c-.08,2.26-2.02,4.27-5,4.51l-6.61.24c-8.3.16-22.09.24-24.59.24-5.24,0-9.11-1.53-9.19-7.5l-.08-5.96c0-1.29-.56-1.85-1.45-2.5-.97-.73-1.85-.89-2.9-1.29-.64-.24-2.02-.81-2.02-1.77,0-1.53,3.39-2.18,4.68-2.26,2.26,0,7.34,0,10.72.32,2.98.24,3.71,1.37,3.55,2.74l-.16,2.82v6.45c0,1.85.56,2.26,2.66,2.26s8.38,0,12.58-.56c1.53-.24,2.74-.81,3.22-1.13,1.77-1.05,4.03-1.29,6.05-1.29,1.53,0,3.22.08,4.51.32,2.18.4,4.11,1.37,4.03,4.35ZM35.26,55.64l11.61-.65v-7.33l-11.61.56v7.42ZM86.86,45.16c3.06,0,6.53.4,6.53,4.43,0,2.74-1.53,5.24-3.87,5.4-2.66.24-7.09.32-10.16.32l-.08,9.11c0,3.14-1.93,12.25-7.74,12.25-2.74,0-4.03-4.67-4.11-12.01l-.4-36.28c0-3.14-2.74-5.88-5.32-7.34-.97-.56-1.93-1.13-1.85-1.77.16-1.13,2.58-1.61,3.55-1.61,2.82.08,13.79,2.42,15.8,4.03,1.05.81.89,1.85.72,2.98-.24.89-.4,2.42-.48,3.39l-.08,19.75c1.13,0,2.26-.81,3.06-1.45,1.45-1.05,2.74-1.21,4.43-1.21Z"/>
        <path d="M170.22,52.5c1.77.65,3.3,2.02,3.22,4.35-.08,3.06-2.58,5-8.38,4.43-1.85-.16-5.48-.56-8.71-.56-12.17,0-26.12.48-37.16,1.61-2.18.24-4.76.48-5.56.64-1.77.24-3.95,1.05-5.08,1.45-.48.16-.89.24-1.37.24-2.82,0-8.71-5.48-10.24-7.5-.56-.97-.89-2.02-.56-2.42.4-.48,1.21-.73,2.5-.4,2.5.64,6.29.89,9.19.97,2.58.08,5.97.08,9.59,0l11.53-.4c-.32-1.77-.56-3.63-.56-4.68l-.16-3.14c-3.47.16-6.21.16-7.25.08-5.72-.4-9.11-1.93-9.11-8.38v-7.5c0-2.42-2.34-3.55-4.35-4.19-.81-.24-2.42-.89-2.34-1.93,0-.48.81-1.21,2.42-1.77.32-.16,2.18-.24,4.51-.24,3.06,0,6.85.16,8.95.48,1.53.16,2.34.64,2.9,1.05.08.08.73.08,1.37.08,3.31.08,10.48-.24,15.8-1.13,1.37-.24,2.42-.56,2.9-.89,1.69-1.21,3.87-1.85,6.93-1.85,2.66,0,7.74,0,7.74,3.71,0,2.42-1.45,4.43-3.79,4.84-1.61.32-4.84.56-8.87.81-8.63.48-18.38.97-21.68,1.05v6.69c0,2.34.72,2.66,2.98,2.66.48,0,6.93.08,13.14-.64,1.93-.24,3.47-.73,4.19-1.21,1.93-1.21,4.03-1.53,6.21-1.53,1.69,0,3.63.16,5.08.32,2.18.24,3.22,2.26,3.22,3.95,0,1.85-1.53,4.11-4.76,4.43-2.58.24-7.98.48-13.79.73-.16,2.66-.48,5.16-1.05,7.74,4.84-.24,9.19-.56,12.01-.89,3.71-.4,4.76-.56,5.88-1.29.81-.48,1.85-.73,3.47-.73,2.18-.16,6.45,0,9.03.97ZM135.55,95.62c-10.64.08-18.94-5.88-18.94-14.83,0-10.56,10.24-13.14,14.99-13.7.81-.64,1.37-1.85.4-2.9-.4-.4-.56-.81-.4-1.13.24-.24.73-.4,1.77-.4,2.26.16,4.76,1.13,5.56,1.77,1.05.81.81,1.69.24,2.66,2.66.32,14.91,2.5,14.75,14.03-.08,7.58-7.17,14.43-18.38,14.51ZM135.15,72.97c-4.59,0-7.34,3.22-7.34,7.34s2.74,6.93,7.5,6.93c4.35,0,7.17-2.9,7.17-7.25s-3.14-7.01-7.34-7.01Z"/>
        <path d="M205.85,43.06c4.51.48,12.09,3.95,12.09,11.04,0,8.38-7.58,13.14-15.72,13.14-9.19,0-16.61-4.59-16.61-12.33,0-8.46,7.9-11.04,12.17-11.53,1.61-.24,1.93-1.61,1.53-2.9-2.02.16-3.87.32-5.48.56-2.1.24-3.14.73-4.19,1.29-.24.16-.56.16-.89.16-2.66,0-6.37-4.03-7.74-5.97-.56-.81-.81-1.93-.4-2.34.32-.32,1.05-.32,1.93-.08,1.21.4,3.3.56,6.29.56,6.29,0,15.32-.08,21.28-1.29,1.61-.32,2.74-.48,3.63-1.05.89-.56,3.3-.65,4.51-.65,1.61,0,3.14.24,4.11.73,1.45.65,2.26,2.18,2.1,3.95-.16,1.53-1.45,3.14-3.79,3.14-2.82,0-5.56,0-8.38.16l-7.26.4c.97.97,1.21,2.02.81,2.98ZM199.32,31.62c-3.79,0-5.88-3.14-7.66-6.05-1.05-1.77-1.13-2.66-.65-3.06.4-.32,1.05-.24,2.1.16,1.53.56,3.3.64,5.24.81,3.47.24,7.98.16,10.96.32,2.82.16,4.19,1.61,4.19,3.71,0,1.85-1.29,3.39-3.39,3.71-3.31.4-9.03.4-10.8.4ZM201.74,49.03c-2.98,0-5.8,1.93-5.72,5.4.08,3.87,2.82,5.16,5.88,5.16,2.82,0,5.48-2.1,5.32-5.48-.16-2.98-2.26-5.08-5.48-5.08ZM223.99,95.87c-9.43.08-17.57-5.97-17.73-13.79-.16-9.59,9.19-12.41,14.35-12.66.97-.24,2.02-1.37,1.37-2.26-.73-1.05-.81-1.77-.48-2.1.4-.4,1.21-.4,2.02-.24,1.05.16,3.47,1.13,4.43,2.1.89.89.56,1.61.16,2.42,4.43.56,14.11,3.71,14.11,12.33,0,7.58-6.85,14.11-18.22,14.19ZM218.43,44.76c-.89-.97-1.45-2.66-1.05-3.31.24-.4.64-.48,1.77-.32,2.18.32,3.55.4,6.37.32l6.05-.4-.16-12.66c0-1.37,0-2.1-.81-3.22-.81-1.21-3.06-3.14-4.92-4.19-.81-.48-1.61-1.13-1.45-1.77.16-.73,1.21-1.05,2.1-1.29.64-.16,1.45-.32,2.1-.24,3.14.4,12.66,2.58,14.91,4.03,1.21.81,1.13,2.26.89,3.39-.16.89-.48,1.94-.48,2.98l-.24,28.38c0,3.14-1.93,11.04-7.74,11.04-2.66,0-3.87-2.42-4.03-8.62-1.53.16-2.98.56-4.35,1.13-.32.16-.64.24-.97.24-2.1,0-5.24-2.98-6.53-4.35-.89-.97-1.21-2.34-.89-3.14.16-.32.64-.48,1.77-.32,1.69.24,2.82.32,4.59.32,2.1,0,4.19-.08,6.29-.32v-4.84c-2.66.16-3.63.4-6.05,1.37-.32.16-.56.16-.89.16-2.02,0-5.08-2.98-6.29-4.35ZM224.56,75.63c-3.63,0-6.77,1.85-6.93,5.97-.16,3.79,3.14,6.13,6.69,6.13s6.53-2.5,6.61-6.21c.08-3.63-2.74-5.88-6.37-5.88Z"/>
        <path d="M261.32,64.83c-.64.24-1.85.32-2.18-.32-.16-.32.08-1.21,1.13-1.85,11.69-7.25,19.83-20.07,21.93-27.41.73-2.5.32-3.87-2.26-5.24-.65-.32-1.53-1.05-1.45-1.61.08-.48.89-.97,3.22-1.37.48-.08,1.21-.08,2.18.08,3.47.32,8.95,1.61,12.25,2.9,1.37.56,1.69,1.05,1.69,1.93,0,1.13-.64,2.42-1.61,3.39-1.77,3.3-4.03,6.85-6.61,10.08l.48.48c.97.81,2.5,1.45,4.92,2.5,2.9,1.29,5.4,2.98,6.53,5.96,1.13,3.06.32,5.56-1.29,6.69-.89.56-1.85.89-2.9.89-1.69,0-3.55-.81-5.08-2.66-2.18-2.5-4.92-6.29-6.93-9.19-6.69,6.53-15.24,11.85-24.02,14.75ZM304.61,95.78c-9.51.08-17.57-5.56-17.82-14.27-.24-9.59,7.98-13.62,14.19-14.27.97-.24,2.18-1.53,1.53-2.42-.73-.89-.81-1.61-.48-1.93.4-.4,1.21-.4,2.02-.24,1.21.24,4.35,1.21,5.24,2.26.81,1.05.48,1.69.08,2.42,5.48.81,13.87,4.27,13.87,13.62,0,7.9-7.25,14.75-18.62,14.83ZM296.55,44.11c-.4-.48-1.13-1.77-.81-2.42.16-.32.48-.81,1.61-.56,1.61.32,3.3.48,5.16.48,3.14,0,6.37-.24,9.51-.56l-.16-12.66c0-3.14-2.82-5.88-5.4-7.34-.97-.56-1.94-1.13-1.85-1.77.16-1.13,2.58-1.61,3.55-1.61,2.82.08,13.87,2.42,15.88,4.03,1.05.81.89,1.85.73,2.98-.24.89-.4,2.42-.48,3.39l-.16,27.25c0,3.14-1.93,11.04-7.74,11.04-2.74,0-4.03-3.39-4.11-10.72l-.08-7.82c-2.58.24-5.08.56-7.42,1.53-.32.16-.73.24-1.13.24-2.01,0-5.96-4.03-7.09-5.48ZM305.01,73.7c-3.95,0-7.01,2.58-7.01,7.09s3.39,6.69,6.93,6.69c3.79,0,6.85-2.66,6.93-6.85.08-4.19-3.14-6.93-6.85-6.93Z"/>
      </g>
    </g>
  </g>
</svg>