<?xml version="1.0" encoding="UTF-8"?>
<svg id="_레이어_2" data-name="레이어 2" xmlns="http://www.w3.org/2000/svg" width="693.6" height="881.96" viewBox="0 0 693.6 881.96">
  <defs>
    <style>
      .cls-1 {
        fill: none;
        stroke: #000;
        stroke-miterlimit: 10;
        stroke-width: 10px;
      }
    </style>
  </defs>
  <g id="_레이어_1-2" data-name="레이어 1">
    <g>
      <path class="cls-1" d="M614.66,188.88c-33.05-95.46-122.88-142.92-140.29-151.69-15.29-7.71-48.26-24.66-94.75-30.29-32.12-3.89-57.88-.91-74.54,1.12-37.44,4.56-65.23,14.02-76.75,18.24-20.92,7.67-47.54,17.42-75.86,39.95-9.3,7.4-30.59,25.58-49.08,54.72-10.23,16.12-39.72,62.61-35.7,120.73,0,0,7.69,111.01,4.06,116.97-.36.59-1.87,2.83-3.49,5.82-1.88,3.46-.7,2.08-4.46,3.71-5.09,2.2-7.35-12.11-16.4-16.51-9.05-4.4-12.44-15.96-27.14-6.6-14.7,9.36-15.27,19.26-15.27,25.32s2.26,19.81,2.26,26.97-3.39,33.57,0,48.98c3.39,15.41,11.31,30.27,16.96,42.38,5.65,12.11,14.88,45.57,22.85,55.44,7.97,9.87,18.11,22.56,26.8,23.97,8.69,1.41,14.73-9.78,18.83-7.05,4.11,2.73-5.07,9.16-4.35,16.92.72,7.75,7.97,29.61,10.14,40.89,2.17,11.28,5.79,58.51,10.14,66.97,4.35,8.46,50.7,81.07,72.43,107.86s52.88,66.27,97.06,75.43c44.18,9.16,128.21,12.69,158.63-2.82,30.42-15.51,94.16-96.58,119.52-134.65,25.35-38.07,40.56-84.6,45.63-109.27s-5.07-42.3-2.9-49.35c2.17-7.05,10.14-4.93,15.94-7.75,5.79-2.82,23.9-10.57,28.97-21.15,5.07-10.57,7.24-27.49,12.31-41.59,5.07-14.1,24.63-69.09,27.52-82.48,11.62-53.73-.89-69.59-4.35-73.32-2.11-2.27-7.76-8.36-16.17-8.97-8.16-.59-14.54,4.29-18,7.01-14.3,11.25-15.61,26.45-18,26.27-6.09-.44,16.37-98.48-12.6-182.16Z"/>
      <path class="cls-1" d="M140.01,418.73c21.67-3.81,40.31-5.53,54.74-6.34,30.06-1.69,48.7.22,54.07.81,16.98,1.88,25.52,2.72,31.39,6.07,22.78,13.01,27.82,43.32,31.39,64.8,1.99,11.95,6.38,38.38-1.01,70.87-6.09,26.77-15.76,38.28-9.11,54.67,5.8,14.29,19.57,21.38,23.29,23.29,4.19,2.15,22.58,11.62,35.44,4.05,7.24-4.26,7.1-10.61,15.19-14.18,6.95-3.07,14.32-1.59,19.24,0"/>
      <path class="cls-1" d="M428.04,464.84s22.27,21.26,56.7,22.27,54.67-23.29,54.67-23.29"/>
      <path class="cls-1" d="M278.19,464.84s-22.27,21.26-56.7,22.27c-34.42,1.01-54.67-23.29-54.67-23.29"/>
      <path class="cls-1" d="M250.22,713.32c16.71-1.61,38.18-3.2,63.24-3.83,30.77-.78,54.14.22,70.91.96,18.03.8,40.41,2.2,66.11,4.79"/>
      <path class="cls-1" d="M295.04,742.07s30.66,11.5,51.74,11.5,66.11-12.46,66.11-12.46"/>
      <path class="cls-1" d="M409.1,621.55c10.6-9.79,12.65-17.73,12.68-23.05.04-8.7-5.36-13.51-7.49-27.66-.96-6.39-.81-11.7-.58-14.98"/>
      <path class="cls-1" d="M428.11,407.78c17.69-2.16,37.59-3.57,59.35-3.46,30.83.16,58.2,3.33,81.24,7.49"/>
      <path class="cls-1" d="M639.81,391.31c-.19-8.85,3.76-16.57,10.37-20.17,1.58-.86,6.42-3.5,10.95-1.73,9.64,3.77,8.82,23.97,8.64,28.23-.34,8.25-2.4,14.84-4.03,19.01"/>
      <path class="cls-1" d="M653.63,406.29c-1.18-.46-12.29-4.59-21.32,1.73-6.62,4.63-8.17,12.12-8.64,14.4-1.47,7.07.32,13.82,2.3,21.32,2.12,7.99,4.11,11,2.3,13.83-2.24,3.52-7.12,1.75-10.95,4.61-3.23,2.42-5.97,8.35-2.88,24.2"/>
      <path class="cls-1" d="M628.28,486.38c4.37-3.21,12.51-10.18,17.29-21.9,6.57-16.13,3.83-33.61-3.46-46.1-2.63-4.51-5.5-7.76-7.49-9.8"/>
      <path class="cls-1" d="M54.9,402.75c.19-8.85-3.76-16.57-10.37-20.17-1.58-.86-6.42-3.5-10.95-1.73-9.64,3.77-8.82,23.97-8.64,28.23.34,8.25,2.4,14.84,4.03,19.01"/>
      <path class="cls-1" d="M41.08,417.73c1.18-.46,12.29-4.59,21.32,1.73,6.62,4.63,8.17,12.12,8.64,14.4,1.47,7.07-.32,13.82-2.3,21.32-2.12,7.99-4.11,11-2.3,13.83,2.24,3.52,7.12,1.75,10.95,4.61,3.23,2.42,5.97,8.35,2.88,24.2"/>
      <path class="cls-1" d="M66.43,497.82c-4.37-3.21-12.51-10.18-17.29-21.9-6.57-16.13-3.83-33.61,3.46-46.1,2.63-4.51,5.5-7.76,7.49-9.8"/>
      <path class="cls-1" d="M126.04,170.63c7.16,5.43,32.09,25.82,43.5,67.35,13.35,48.61-1.77,90-4.83,97.96"/>
      <path class="cls-1" d="M571.86,170.76c-6.64,9.67-19.82,31.48-26.48,65.82-8,41.22-1.8,75.75,1.02,88.78"/>
    </g>
  </g>
</svg>